<?xml version="1.0" encoding="utf-8"?>
<!-- Generator: Adobe Illustrator 28.1.0, SVG Export Plug-In . SVG Version: 6.00 Build 0)  -->
<svg version="1.1" id="Layer_1" xmlns="http://www.w3.org/2000/svg" xmlns:xlink="http://www.w3.org/1999/xlink" x="0px" y="0px"
	 viewBox="0 0 212.7 105" style="enable-background:new 0 0 212.7 105;" xml:space="preserve">
<style type="text/css">
	.st0{fill:#74AC00;stroke:#000000;stroke-width:2;stroke-miterlimit:10;}
	.st1{fill:#FFFFFF;stroke:#000000;stroke-width:2;stroke-miterlimit:10;}
</style>
<g id="iNaturalist_Header">
	<g id="iNaturalist-Wordmark">
		<path id="i" class="st0" d="M18.3,39.6V98H2.6V40.9L18.3,39.6z M14.2,6.2c5.2-1.5,11.4-1.2,12-0.7l-0.1,0.1
			c-1.4,1.2-4.7,3.1-4.8,12.5l0,0.3c0,5.7-2.9,9.4-6.2,11.4c-3.3,2-12.5,2.9-15.1,1.7c1.6-1.4,2.3-6.2,2.6-9.5l0.1-1.3l0-0.4
			C3.3,15.6,5.1,8.8,14.2,6.2z"/>
		<path id="Combined-Shape" class="st1" d="M134.8,38c16.4,0,22.9,7.2,22.9,22.5l0,20.9c0,5.2,0.4,7,6.6,6.8l-0.5,8.9l-0.2,0.1
			c-2.7,0.6-12.7,1.8-17.9-4.3c-5,4.9-10.9,5.2-17.6,5.2c-10.1,0-17.6-5.9-17.6-15.8c0-9,6.2-19.9,33.2-20.1v-1.8l0-0.5
			c-0.1-7.7-1.9-10.5-10.7-10.5c-4.7,0-10.5,1-18.1,4.1L114,43C120,39.7,128.5,38,134.8,38z M47.8,16.7l39.8,58.6V16.7h13.9v81.2
			H85.4L45.6,39v58.9h-14V16.7H47.8z M188.1,22l0,18.3h16l-0.6,11h-15.4v25.1c0,7.5,3.7,9.6,8.5,9.6c2.2,0,4.9-0.3,8.8-1.7
			l-0.1,10.6c-4.3,1.9-9,2.9-12.5,2.9c-10.3,0-18.9-4-18.9-19.9V51.2h-7.4v-9.9l7.7-1.1l-0.1-16.9L188.1,22z M124.5,80.6
			c0,4,3.2,7,8.9,7c4.2,0,7.9-1.4,11.3-4.3V71.5C128.8,71.2,124.5,75.9,124.5,80.6z"/>
	</g>
</g>
</svg>
