<?xml version="1.0" encoding="utf-8"?>
<!-- Generator: Adobe Illustrator 28.1.0, SVG Export Plug-In . SVG Version: 6.00 Build 0)  -->
<svg version="1.1" id="Layer_1" xmlns="http://www.w3.org/2000/svg" xmlns:xlink="http://www.w3.org/1999/xlink" x="0px" y="0px"
	 viewBox="0 0 1153 210" style="enable-background:new 0 0 1153 210;" xml:space="preserve">
<style type="text/css">
	.st0{fill:#74AC00;}
</style>
<g id="iNaturalist_Header">
	<g id="iNaturalist-Wordmark">
		<path id="i" class="st0" d="M338.6,92.6V151h-15.7V93.9L338.6,92.6z M334.5,59.2c5.2-1.5,11.4-1.2,12-0.7l-0.1,0.1
			c-1.4,1.2-4.7,3.1-4.8,12.5l0,0.3c0,5.7-2.9,9.4-6.2,11.4c-3.3,2-12.5,2.9-15.1,1.7c1.6-1.4,2.3-6.2,2.6-9.5l0.1-1.3l0-0.4
			C323.6,68.6,325.4,61.8,334.5,59.2z"/>
		<path id="Combined-Shape" d="M711.4,63v88H697V64.3L711.4,63z M630.9,92.8l-0.9,12.6c-2.5-0.6-4.3-0.8-6.3-0.8
			c-4.1,0-8.3,1.5-11.9,6.7V151h-14.3V93.5l13.3-1.6l0,6.2c3.3-6.2,10.5-6.2,14-6.2C626.4,91.9,628.9,92.1,630.9,92.8z M586,91.4
			v57.8l-12.8,1.3l-0.5-6c-5.1,6.1-11.4,6.5-18,6.5c-13.4,0-19.9-8.7-19.9-23.5V92.8l14.2-1.4v33.3c0,9.6,3.3,13.4,10.5,13.4
			c3.8,0,12.2-3.5,12.2-11.6l0-33.8L586,91.4z M455,91c16.4,0,22.9,7.2,22.9,22.5l0,20.9c0,5.2,0.4,7,6.6,6.8l-0.5,8.9l-0.2,0.1
			c-2.7,0.6-12.7,1.8-17.9-4.3c-5,4.9-10.9,5.2-17.6,5.2c-10.1,0-17.6-5.9-17.6-15.8c0-9,6.2-19.9,33.2-20.1v-1.8l0-0.5
			c-0.1-7.7-1.9-10.5-10.7-10.5c-4.7,0-10.5,1-18.1,4.1L434.3,96C440.2,92.7,448.8,91,455,91z M659.4,91c16.4,0,22.9,7.2,22.9,22.5
			l0,20.9c0,5.2,0.4,7,6.6,6.8l-0.5,8.9l-0.2,0.1c-2.7,0.6-12.7,1.8-17.9-4.3c-5,4.9-10.9,5.2-17.6,5.2c-10.1,0-17.6-5.9-17.6-15.8
			c0-9,6.2-19.9,33.2-20.1v-1.8c0-8.1-1.7-11-10.7-11c-4.7,0-10.5,1-18.1,4.1L638.7,96C644.6,92.7,653.1,91,659.4,91z M769.9,91
			c4.5,0,11,0.8,15.6,2.7l-0.9,10.4c-5.8-1.8-10.5-2.4-14-2.4c-6.8,0-9.3,3-9.4,6.2l0,0.1c0,3,1.4,4.8,7.9,6.8l5.3,1.5
			c10.2,2.9,13.3,8.9,13.3,15.8c0,8.7-6.2,18.9-23.2,18.9c-5.1,0-11.2-1.1-16.6-3.4l-0.2-11c7.1,2.7,11.7,3.4,15.8,3.4
			c7.4,0,10.1-3.7,10.1-7.1l0-0.2l0-0.2c-0.1-2.6-1.4-5-8.1-7.1l-5.4-1.5c-8.8-2.5-12.3-7.3-12.4-15C747.6,99.5,754.4,91,769.9,91z
			 M368.1,69.7l39.8,58.6V69.7h13.9v81.2h-16.2L365.8,92v58.9h-14V69.7H368.1z M737.6,92.6v58.1h-14.3V93.8L737.6,92.6z M508.4,75
			l0,18.3h16l-0.6,11h-15.4v25.1c0,7.5,3.7,9.6,8.5,9.6c2.2,0,4.9-0.3,8.8-1.7l-0.1,10.6c-4.3,1.9-9,2.9-12.5,2.9
			c-10.3,0-18.9-4-18.9-19.9v-26.6h-7.4v-9.9l7.7-1.1l-0.1-16.9L508.4,75z M815,75l-0.1,18.3h16l-0.6,11h-15.4v25.1
			c0,7.5,3.7,9.6,8.5,9.6c2.2,0,4.9-0.3,8.8-1.7l-0.1,10.6c-4.3,1.9-9,2.9-12.5,2.9c-10.3,0-18.9-4-18.9-19.9v-26.6h-7.4v-9.9
			l7.7-1.1l0-16.9L815,75z M444.7,133.6c0,4,3.2,7,8.9,7c4.2,0,7.9-1.4,11.3-4.3v-11.7C449.1,124.2,444.7,128.9,444.7,133.6z
			 M649.1,133.6c0,4,3.2,7,8.9,7c4.2,0,7.9-1.4,11.3-4.3v-11.7C653.4,124.2,649.1,128.9,649.1,133.6z M730.3,65.7
			c5.5,0,8.8,3.7,8.8,8.6c0,5-3.7,8.5-8.9,8.5c-5.6,0-8.8-3.7-8.8-8.6C721.4,69.2,725.1,65.7,730.3,65.7z"/>
	</g>
</g>
</svg>
