<?xml version="1.0" encoding="utf-8"?>
<!-- Generator: Adobe Illustrator 28.1.0, SVG Export Plug-In . SVG Version: 6.00 Build 0)  -->
<svg version="1.1" id="Layer_1" xmlns="http://www.w3.org/2000/svg" xmlns:xlink="http://www.w3.org/1999/xlink" x="0px" y="0px"
	 viewBox="0 0 80 100" style="enable-background:new 0 0 80 100;" xml:space="preserve">
<style type="text/css">
	.st0{fill:#CF9CC6;}
	.st1{fill:#AD3C8F;}
	.st2{fill:#C570AC;}
	.st3{fill:#F5F5F7;}
	.st4{fill:none;stroke:#231F20;stroke-width:2;stroke-miterlimit:10;}
	.st5{fill:none;stroke:#231F20;stroke-miterlimit:10;}
	.st6{fill:none;}
</style>
<g>
	<g id="XMLID_00000100372480804474080570000016326028611733639299_">
		<g>
			<path class="st0" d="M74.5,52.4c0,0.1,0,0.4-0.1,0.5c-0.2,0.2-0.8-0.3-1.2-0.5c-0.7-0.4-1.5-0.3-2.8-0.1
				c-0.4,0.1-0.8,0.2-1.3,0.3c-0.4-0.3-0.8-0.7-1-1c0.5-0.1,1-0.1,1.7-0.2c0.8-0.1,1.6-0.2,2.6,0C73.1,51.5,74.4,51.7,74.5,52.4z"/>
			<path class="st1" d="M57.7,50.9c-0.4,0.2-1,0.6-1.6,0.9h0c-0.7,0.5-1.3,1.1-1.4,1.6c0,0.1,0,0.2,0,0.2c0,0.1,0,0.2,0.1,0.2
				c0.3,0.6,1.3,1,1.8,1.2c0.8,0.4,0.9,0.2,1.9,0.6c0.3,0.1,0.5,0.2,2.2,1.1c0.9,0.5,1.4,0.7,1.5,0.8c1.1,0.7,1.6,1.6,2,2.2
				c0.3,0.5,1.5,1.4,3.8,3.3c0.7,0.6,1.3,1.1,1.8,1.5c1.3,1,2.1,1.6,2.7,2c0,0,0.6,0.4,1.2,0.9c0.5,0.4,0.7,0.6,0.9,0.8
				c0.4,0.7,0.5,1.6,0,2c-0.1,0.1-0.3,0.2-0.4,0.4c-0.1,0.2,0,0.3-0.1,0.4c-0.1,0.3-0.5,0.3-0.7,0.3c-0.2,0-0.6,0.1-1.4-0.2
				c-0.5-0.1-0.9-0.4-1.7-0.8c-0.2-0.1-0.4-0.2-0.5-0.3c-0.3-0.3-0.3-0.5-0.5-0.7c-0.2-0.1-0.5-0.2-0.7,0c-0.2,0.2,0.1,0.7,0.1,1.8
				c0,0.6-0.1,0.7-0.1,0.7c-0.3,0.3-1,0-1.4-0.2c-0.2-0.1-0.5-0.3-1.1-1.3c-0.2-0.2-0.7-1.1-1.2-2.3c-0.2-0.6-0.4-1.1-0.4-1.1
				c-0.2-0.7-0.2-0.8-0.3-1c-0.3-0.5-0.7-0.7-1.5-1.2c-2-1.1-1.1-0.7-1.9-1.1c-2.7-1.3-4-2-6.1-2.7c-0.5-0.2-2.1-0.7-4-1.2
				c-0.7-0.2-1.1-0.2-1.5-0.3c-1.2-0.2-1.6-0.1-2.8-0.1c-0.4,0-1.4-0.1-3.3-0.4c-1.4-0.2-1.6-0.2-2.7-0.4c-1.5-0.2-1.6-0.2-2.4-0.3
				c-1.5-0.2-2.7-0.5-3.5-0.7c-6.4-1.5-7.9-1.4-12-2.8c-2.4-0.8-2.1-0.8-5.3-1.9c-1.6-0.5-1.4-0.4-6.9-2.1c-1.3-0.4-1.5-0.5-2-0.6
				c-3-0.7-4.1,0-4.9-0.7c-1.2-1.1-0.7-4.1,0.5-4.6c0.1,0,0.7,0,1.9,0c0,0,0.2,0,1.8,0c1,0,1.3,0,1.6,0c0.6-0.1,1.1-0.2,1.2-0.2
				c0.1,0,0.1,0,0.9-0.3c0.8-0.2,0.8-0.3,0.9-0.3c0.5-0.3,0.4-0.6,0.8-0.9c0.1-0.1,0.2-0.1,0.9-0.2c1.1-0.2,1.1-0.2,1.1-0.2
				c0.7-0.1,1-0.2,1.6-0.2c1.7-0.2,4.1-0.5,6.1-0.8c2.4-0.3,2.2-0.3,3.1-0.4c2.1-0.2,2.2,0,4.1-0.2c0.8-0.1,1.6-0.2,2.7-0.2
				c0.5,0,0.5,0,1.5,0.1c1.9,0.1,2.2,0,3.4,0.1c0.7,0,1.4,0.1,2.6,0.3c1.4,0.2,2.3,0.3,3.8,0.6c2.5,0.4,3.8,0.6,4.3,0.6
				c1.3,0.1,3.1,0.3,5.3,0c1.1-0.1,3-0.5,5.4-1.4c1.6-0.7,1.3-0.8,6.2-3.4c0.3-0.2,1-0.6,2-1c0.7-0.3,1.2-0.5,1.9-0.7
				c1.9-0.7,2.4-0.7,2.9-0.7c0.6,0,0.9,0.1,1.2,0.3c0.8,0.6,0.7,1.8,0.7,1.9c-0.1,1.2-1,2-1.6,2.5c-0.5,0.4-0.5,0.3-1.2,0.8
				c-1.2,0.9-1.3,1.3-2.8,2.7c-0.8,0.7-0.7,0.6-1.6,1.4c-1.1,1-1.3,1.3-2,2c-0.2,0.2-1.3,1.2-2.7,2c-1.7,1-2,0.6-3.8,1.5
				C57.9,50.8,57.8,50.8,57.7,50.9z"/>
			<path class="st2" d="M68,63.2c-2.3-1.9-3.5-2.8-3.8-3.3c-0.4-0.6-0.9-1.5-2-2.2c-0.1,0-0.5-0.3-1.5-0.8c-1.7-0.9-1.9-1-2.2-1.1
				c-1-0.4-1.1-0.2-1.9-0.6c0.7,0,1.8,0,3-0.2c1.1-0.2,2-0.4,3-0.7c0.2,0.2,0.5,0.3,0.7,0.6c1.2,0.9,1.3,0.9,2.2,1.6
				c1.3,1,1.9,1.6,2.4,2.2c0.6,0.7,0.8,1.2,0.9,1.3c0.2,0.3,0.5,0.9,0.7,1.7c0.4,1.2,0.3,2.3,0.2,3.1C69.3,64.3,68.7,63.8,68,63.2z"
				/>
			<path class="st0" d="M69,50.4c0.1,0.2,0.2,0.5,0.1,0.6c-0.1,0.1-0.3,0-0.9-0.1c0,0-0.1,0-0.3,0c-0.1-0.4,0-0.6-0.2-0.9
				c0.2,0,0.4,0,0.7,0.1C68.7,50.1,68.9,50.2,69,50.4z"/>
			<path class="st0" d="M68.2,51.6c0.2,0.3,0.5,0.7,1,1c-2.5,0.5-5.1,1.3-6.5,1.7c0,0,0,0-0.1,0c-0.8-0.6-1.1-0.9-1.5-1.2
				c0.1,0,0.3-0.1,0.5-0.1c3.3-0.8,3.2-0.9,4.3-1.1C66,51.8,66,51.8,68.2,51.6z"/>
			<path class="st3" d="M68.2,50.9c0.5,0.1,0.8,0.2,0.9,0.1c0.1-0.1,0.1-0.4-0.1-0.6c-0.1-0.2-0.4-0.3-0.6-0.3
				C68.2,50,68,50,67.8,50c0-0.1-0.1-0.2-0.1-0.3c-0.3-0.6-0.6-0.7-0.5-1c0.1-0.4,0.8-0.7,1.4-0.6c0.4,0,0.5,0.2,0.9,0.3
				c0.4,0,0.4-0.1,0.8-0.1c0.3,0,0.9,0,1.2,0.3c0.2,0.2,0.2,0.3,0.4,0.5c0.3,0.3,0.6,0.2,0.7,0.4c0.1,0.2-0.1,0.4,0.1,0.6
				c0.2,0.3,0.6,0.3,0.9,0.3c0.6,0,0.7-0.2,1.1-0.1c0.1,0,0.3,0.2,0.7,0.5c0.6,0.5,0.6,0.5,0.7,0.6c0.6,0.3,1-0.1,1.2,0.2
				c0.1,0.1,0,0.5-0.1,1.1c-0.1,0.5-0.2,0.8-0.3,1c-0.3,0.4-0.8,0.5-1.1,0.6c-0.5,0.1-0.5,0-0.8,0.2c-0.4,0.2-0.5,0.5-0.8,0.6
				c-0.3,0-0.3-0.2-0.6-0.2c-0.5-0.1-0.7,0.4-1.4,0.5c-0.2,0-0.5,0-0.6-0.2c-0.2-0.3,0.2-0.9,0-1.1c-0.1-0.1-0.3,0-0.6-0.2
				c-0.3-0.1-0.3-0.3-0.5-0.5c-0.3-0.3-0.6-0.3-0.9-0.4c-0.1,0-0.3-0.1-0.4-0.2c0.4-0.1,0.9-0.2,1.3-0.3c1.3-0.3,2.1-0.3,2.8,0.1
				c0.4,0.2,1,0.7,1.2,0.5c0.1-0.1,0.1-0.3,0.1-0.5c-0.2-0.7-1.5-0.9-2-1c-1-0.2-1.8-0.1-2.6,0c-0.7,0.1-1.3,0.2-1.7,0.2
				c-0.1-0.2-0.2-0.4-0.2-0.5c0-0.1-0.1-0.1-0.1-0.2C68.1,50.9,68.2,50.9,68.2,50.9z"/>
			<path class="st0" d="M67.8,50c0.1,0.4,0,0.6,0.2,0.9c-0.1,0-0.2,0-0.4,0c-0.9,0-1.4,0-1.5,0c-0.6,0-1.1,0.1-1.4,0.1
				c-0.3,0.1-0.7,0.1-1.2,0.2c-0.9,0.2-1.3,0.4-2.3,0.6c-0.5,0.1-0.9,0.2-1.2,0.3c-0.4-0.3-0.9-0.6-1.5-0.9c1.5-0.4,1.6-0.4,2.5-0.6
				c0.6-0.1,1-0.1,1.8-0.3c0.5-0.1,0.5-0.1,0.9-0.2c0.9-0.2,2-0.2,2-0.2c0.5,0,0.3,0,0.9,0C67,50,67.4,49.9,67.8,50z"/>
			<path class="st0" d="M61.1,53.1c0.4,0.3,0.8,0.6,1.5,1.2c-1.1,0.3-1.9,0.5-3,0.7c-1.3,0.2-2.3,0.2-3,0.2
				c-0.6-0.3-1.5-0.7-1.8-1.2c0.1-0.1,0.3-0.2,0.6-0.2c0.6-0.2,1.1,0,1.6,0c0.4,0,0.8,0,1.7-0.1C58.9,53.6,59.5,53.5,61.1,53.1z"/>
			<path class="st2" d="M60.5,52.6c0.2,0.2,0.4,0.3,0.6,0.4c-1.6,0.4-2.2,0.5-2.5,0.6c-0.9,0.1-1.3,0.2-1.7,0.1c-0.5,0-1-0.2-1.6,0
				c-0.3,0.1-0.5,0.1-0.6,0.2c0-0.1-0.1-0.2-0.1-0.2c0-0.1,0-0.2,0-0.2l0.1,0c0.4-0.1,1-0.3,1.8-0.5c1-0.3,1.3-0.3,2.4-0.6
				c0.1,0,0.5-0.1,0.9-0.2C60.1,52.4,60.3,52.5,60.5,52.6z"/>
			<path class="st0" d="M59.9,52.2c-0.5,0.1-0.8,0.2-0.9,0.2c-1.1,0.3-1.4,0.3-2.4,0.6c-0.8,0.2-1.4,0.4-1.8,0.5l-0.1,0
				c0.1-0.6,0.7-1.2,1.4-1.6h0c1-0.2,1.7-0.4,2.3-0.5c0,0,0.1,0,0.1,0C59,51.6,59.5,51.9,59.9,52.2z"/>
			<path class="st2" d="M58.4,51.3C58.4,51.3,58.4,51.3,58.4,51.3c-0.6,0.1-1.4,0.3-2.3,0.5c0.6-0.4,1.2-0.7,1.6-0.9
				C57.9,51,58.2,51.2,58.4,51.3z"/>
		</g>
		<g>
			<path class="st4" d="M67.8,50c0-0.1-0.1-0.2-0.1-0.3c-0.3-0.6-0.6-0.7-0.5-1c0.1-0.4,0.8-0.7,1.4-0.6c0.4,0,0.5,0.2,0.9,0.3
				c0.4,0,0.4-0.1,0.8-0.1c0.3,0,0.9,0,1.2,0.3c0.2,0.2,0.2,0.3,0.4,0.5c0.3,0.3,0.6,0.2,0.7,0.4c0.1,0.2-0.1,0.4,0.1,0.6
				c0.2,0.3,0.6,0.3,0.9,0.3c0.6,0,0.7-0.2,1.1-0.1c0.1,0,0.3,0.2,0.7,0.5c0.6,0.5,0.6,0.5,0.7,0.6c0.6,0.3,1-0.1,1.2,0.2
				c0.1,0.1,0,0.5-0.1,1.1c-0.1,0.5-0.2,0.8-0.3,1c-0.3,0.4-0.8,0.5-1.1,0.6c-0.5,0.1-0.5,0-0.8,0.2c-0.4,0.2-0.5,0.5-0.8,0.6
				c-0.3,0-0.3-0.2-0.6-0.2c-0.5-0.1-0.7,0.4-1.4,0.5c-0.2,0-0.5,0-0.6-0.2c-0.2-0.3,0.2-0.9,0-1.1c-0.1-0.1-0.3,0-0.6-0.2
				c-0.3-0.1-0.3-0.3-0.5-0.5c-0.3-0.3-0.6-0.3-0.9-0.4c-0.1,0-0.3-0.1-0.4-0.2c-0.4-0.3-0.8-0.7-1-1c-0.1-0.2-0.2-0.4-0.2-0.5
				c0-0.1-0.1-0.1-0.1-0.2C67.8,50.5,67.9,50.3,67.8,50z"/>
			<path class="st4" d="M69.8,64.7c0.1-0.8,0.1-1.9-0.2-3.1c-0.2-0.8-0.5-1.4-0.7-1.7c-0.1-0.2-0.4-0.7-0.9-1.3
				c-0.5-0.6-1.1-1.2-2.4-2.2c-0.8-0.7-0.9-0.7-2.2-1.6c-0.3-0.2-0.5-0.4-0.7-0.6c-0.8-0.6-1.1-0.9-1.5-1.2
				c-0.2-0.1-0.4-0.3-0.6-0.4c-0.2-0.1-0.4-0.3-0.6-0.4c-0.4-0.3-0.9-0.6-1.5-0.9c-0.2-0.1-0.5-0.3-0.8-0.4h0"/>
		</g>
	</g>
	<g id="XMLID_00000029765691036999925020000013767701514451387541_">
		<g>
			<path class="st0" d="M74.5,52.4c0,0.1,0,0.4-0.1,0.5c-0.2,0.2-0.8-0.3-1.2-0.5c-0.7-0.4-1.5-0.3-2.8-0.1
				c-0.4,0.1-0.8,0.2-1.3,0.3c-0.4-0.3-0.8-0.7-1-1c0.5-0.1,1-0.1,1.7-0.2c0.8-0.1,1.6-0.2,2.6,0C73.1,51.5,74.4,51.7,74.5,52.4z"/>
			<path class="st1" d="M62.6,65c-2-1.1-1.1-0.7-1.9-1.1c-2.7-1.3-4-2-6.1-2.7c-0.5-0.2-2.1-0.7-4-1.2c-0.7-0.2-1.1-0.2-1.5-0.3
				c-1.2-0.2-1.6-0.1-2.8-0.1c-0.4,0-1.4-0.1-3.3-0.4c-1.4-0.2-1.6-0.2-2.7-0.4c-1.5-0.2-1.6-0.2-2.4-0.3c-1.5-0.2-2.7-0.5-3.5-0.7
				c-6.4-1.5-7.9-1.4-12-2.8c-2.4-0.8-2.1-0.8-5.3-1.9c-1.6-0.5-1.4-0.4-6.9-2.1c-1.3-0.4-1.5-0.5-2-0.6c-3-0.7-4.1,0-4.9-0.7
				c-1.2-1.1-0.7-4.1,0.5-4.6c0.1,0,0.7,0,1.9,0c0,0,0.2,0,1.8,0c1,0,1.3,0,1.6,0c0.6-0.1,1.1-0.2,1.2-0.2c0.1,0,0.1,0,0.9-0.3
				c0.8-0.2,0.8-0.3,0.9-0.3c0.5-0.3,0.4-0.6,0.8-0.9c0.1-0.1,0.2-0.1,0.9-0.2c1.1-0.2,1.1-0.2,1.1-0.2c0.7-0.1,1-0.2,1.6-0.2
				c1.7-0.2,4.1-0.5,6.1-0.8c2.4-0.3,2.2-0.3,3.1-0.4c2.1-0.2,2.2,0,4.1-0.2c0.8-0.1,1.6-0.2,2.7-0.2c0.5,0,0.5,0,1.5,0.1
				c1.9,0.1,2.2,0,3.4,0.1c0.7,0,1.4,0.1,2.6,0.3c1.4,0.2,2.3,0.3,3.8,0.6c2.5,0.4,3.8,0.6,4.3,0.6c1.3,0.1,3.1,0.3,5.3,0
				c1.1-0.1,3-0.5,5.4-1.4c1.6-0.7,1.3-0.8,6.2-3.4c0.3-0.2,1-0.6,2-1c0.7-0.3,1.2-0.5,1.9-0.7c1.9-0.7,2.4-0.7,2.9-0.7
				c0.6,0,0.9,0.1,1.2,0.3c0.8,0.6,0.7,1.8,0.7,1.9c-0.1,1.2-1,2-1.6,2.5c-0.5,0.4-0.5,0.3-1.2,0.8c-1.2,0.9-1.3,1.3-2.8,2.7
				c-0.8,0.7-0.7,0.6-1.6,1.4c-1.1,1-1.3,1.3-2,2c-0.2,0.2-1.3,1.2-2.7,2c-1.7,1-2,0.6-3.8,1.5c-0.1,0-0.2,0.1-0.3,0.2
				c-0.4,0.2-1,0.6-1.6,0.9h0c-0.7,0.5-1.3,1.1-1.4,1.6c0,0.1,0,0.2,0,0.2c0,0.1,0,0.2,0.1,0.2c0.3,0.6,1.3,1,1.8,1.2
				c0.8,0.4,0.9,0.2,1.9,0.6c0.3,0.1,0.5,0.2,2.2,1.1c0.9,0.5,1.4,0.7,1.5,0.8c1.1,0.7,1.6,1.6,2,2.2c0.3,0.5,1.5,1.4,3.8,3.3
				c0.7,0.6,1.3,1.1,1.8,1.5c1.3,1,2.1,1.6,2.7,2c0,0,0.6,0.4,1.2,0.9c0.5,0.4,0.7,0.6,0.9,0.8c0.4,0.7,0.5,1.6,0,2
				c-0.1,0.1-0.3,0.2-0.4,0.4c-0.1,0.2,0,0.3-0.1,0.4c-0.1,0.3-0.5,0.3-0.7,0.3c-0.2,0-0.6,0.1-1.4-0.2c-0.5-0.1-0.9-0.4-1.7-0.8
				c-0.2-0.1-0.4-0.2-0.5-0.3c-0.3-0.3-0.3-0.5-0.5-0.7c-0.2-0.1-0.5-0.2-0.7,0c-0.2,0.2,0.1,0.7,0.1,1.8c0,0.6-0.1,0.7-0.1,0.7
				c-0.3,0.3-1,0-1.4-0.2c-0.2-0.1-0.5-0.3-1.1-1.3c-0.2-0.2-0.7-1.1-1.2-2.3c-0.2-0.6-0.4-1.1-0.4-1.1c-0.2-0.7-0.2-0.8-0.3-1
				C63.8,65.8,63.4,65.5,62.6,65z"/>
			<path class="st2" d="M68,63.2c-2.3-1.9-3.5-2.8-3.8-3.3c-0.4-0.6-0.9-1.5-2-2.2c-0.1,0-0.5-0.3-1.5-0.8c-1.7-0.9-1.9-1-2.2-1.1
				c-1-0.4-1.1-0.2-1.9-0.6c0.7,0,1.8,0,3-0.2c1.1-0.2,2-0.4,3-0.7c0.2,0.2,0.5,0.3,0.7,0.6c1.2,0.9,1.3,0.9,2.2,1.6
				c1.3,1,1.9,1.6,2.4,2.2c0.6,0.7,0.8,1.2,0.9,1.3c0.2,0.3,0.5,0.9,0.7,1.7c0.4,1.2,0.3,2.3,0.2,3.1C69.3,64.3,68.7,63.8,68,63.2z"
				/>
			<path class="st0" d="M69,50.4c0.1,0.2,0.2,0.5,0.1,0.6c-0.1,0.1-0.3,0-0.9-0.1c0,0-0.1,0-0.3,0c-0.1-0.4,0-0.6-0.2-0.9
				c0.2,0,0.4,0,0.7,0.1C68.7,50.1,68.9,50.2,69,50.4z"/>
			<path class="st0" d="M68.2,51.6c0.2,0.3,0.5,0.7,1,1c-2.5,0.5-5.1,1.3-6.5,1.7c0,0,0,0-0.1,0c-0.8-0.6-1.1-0.9-1.5-1.2
				c0.1,0,0.3-0.1,0.5-0.1c3.3-0.8,3.2-0.9,4.3-1.1C66,51.8,66,51.8,68.2,51.6z"/>
			<path class="st3" d="M68.2,50.9c0.5,0.1,0.8,0.2,0.9,0.1c0.1-0.1,0.1-0.4-0.1-0.6c-0.1-0.2-0.4-0.3-0.6-0.3
				C68.2,50,68,50,67.8,50c0-0.1-0.1-0.2-0.1-0.3c-0.3-0.6-0.6-0.7-0.5-1c0.1-0.4,0.8-0.7,1.4-0.6c0.4,0,0.5,0.2,0.9,0.3
				c0.4,0,0.4-0.1,0.8-0.1c0.3,0,0.9,0,1.2,0.3c0.2,0.2,0.2,0.3,0.4,0.5c0.3,0.3,0.6,0.2,0.7,0.4c0.1,0.2-0.1,0.4,0.1,0.6
				c0.2,0.3,0.6,0.3,0.9,0.3c0.6,0,0.7-0.2,1.1-0.1c0.1,0,0.3,0.2,0.7,0.5c0.6,0.5,0.6,0.5,0.7,0.6c0.6,0.3,1-0.1,1.2,0.2
				c0.1,0.1,0,0.5-0.1,1.1c-0.1,0.5-0.2,0.8-0.3,1c-0.3,0.4-0.8,0.5-1.1,0.6c-0.5,0.1-0.5,0-0.8,0.2c-0.4,0.2-0.5,0.5-0.8,0.6
				c-0.3,0-0.3-0.2-0.6-0.2c-0.5-0.1-0.7,0.4-1.4,0.5c-0.2,0-0.5,0-0.6-0.2c-0.2-0.3,0.2-0.9,0-1.1c-0.1-0.1-0.3,0-0.6-0.2
				c-0.3-0.1-0.3-0.3-0.5-0.5c-0.3-0.3-0.6-0.3-0.9-0.4c-0.1,0-0.3-0.1-0.4-0.2c0.4-0.1,0.9-0.2,1.3-0.3c1.3-0.3,2.1-0.3,2.8,0.1
				c0.4,0.2,1,0.7,1.2,0.5c0.1-0.1,0.1-0.3,0.1-0.5c-0.2-0.7-1.5-0.9-2-1c-1-0.2-1.8-0.1-2.6,0c-0.7,0.1-1.3,0.2-1.7,0.2
				c-0.1-0.2-0.2-0.4-0.2-0.5c0-0.1-0.1-0.1-0.1-0.2C68.1,50.9,68.2,50.9,68.2,50.9z"/>
			<path class="st0" d="M67.8,50c0.1,0.4,0,0.6,0.2,0.9c-0.1,0-0.2,0-0.4,0c-0.9,0-1.4,0-1.5,0c-0.6,0-1.1,0.1-1.4,0.1
				c-0.3,0.1-0.7,0.1-1.2,0.2c-0.9,0.2-1.3,0.4-2.3,0.6c-0.5,0.1-0.9,0.2-1.2,0.3c-0.4-0.3-0.9-0.6-1.5-0.9c1.5-0.4,1.6-0.4,2.5-0.6
				c0.6-0.1,1-0.1,1.8-0.3c0.5-0.1,0.5-0.1,0.9-0.2c0.9-0.2,2-0.2,2-0.2c0.5,0,0.3,0,0.9,0C67,50,67.4,49.9,67.8,50z"/>
			<path class="st0" d="M61.1,53.1c0.4,0.3,0.8,0.6,1.5,1.2c-1.1,0.3-1.9,0.5-3,0.7c-1.3,0.2-2.3,0.2-3,0.2
				c-0.6-0.3-1.5-0.7-1.8-1.2c0.1-0.1,0.3-0.2,0.6-0.2c0.6-0.2,1.1,0,1.6,0c0.4,0,0.8,0,1.7-0.1C58.9,53.6,59.5,53.5,61.1,53.1z"/>
			<path class="st2" d="M60.5,52.6c0.2,0.2,0.4,0.3,0.6,0.4c-1.6,0.4-2.2,0.5-2.5,0.6c-0.9,0.1-1.3,0.2-1.7,0.1c-0.5,0-1-0.2-1.6,0
				c-0.3,0.1-0.5,0.1-0.6,0.2c0-0.1-0.1-0.2-0.1-0.2c0-0.1,0-0.2,0-0.2l0.1,0c0.4-0.1,1-0.3,1.8-0.5c1-0.3,1.3-0.3,2.4-0.6
				c0.1,0,0.5-0.1,0.9-0.2C60.1,52.4,60.3,52.5,60.5,52.6z"/>
			<path class="st0" d="M59.9,52.2c-0.5,0.1-0.8,0.2-0.9,0.2c-1.1,0.3-1.4,0.3-2.4,0.6c-0.8,0.2-1.4,0.4-1.8,0.5l-0.1,0
				c0.1-0.6,0.7-1.2,1.4-1.6h0c1-0.2,1.7-0.4,2.3-0.5c0,0,0.1,0,0.1,0C59,51.6,59.5,51.9,59.9,52.2z"/>
			<path class="st2" d="M58.4,51.3C58.4,51.3,58.4,51.3,58.4,51.3c-0.6,0.1-1.4,0.3-2.3,0.5c0.6-0.4,1.2-0.7,1.6-0.9
				C57.9,51,58.2,51.2,58.4,51.3z"/>
		</g>
		<g>
			<path class="st5" d="M56.1,51.8c-0.7,0.5-1.3,1.1-1.4,1.6c0,0.1,0,0.2,0,0.2c0,0.1,0,0.2,0.1,0.2c0.3,0.6,1.3,1,1.8,1.2
				c0.8,0.4,0.9,0.2,1.9,0.6c0.3,0.1,0.5,0.2,2.2,1.1c0.9,0.5,1.4,0.7,1.5,0.8c1.1,0.7,1.6,1.6,2,2.2c0.3,0.5,1.5,1.4,3.8,3.3
				c0.7,0.6,1.3,1.1,1.8,1.5c1.3,1,2.1,1.6,2.7,2c0,0,0.6,0.4,1.2,0.9c0.5,0.4,0.7,0.6,0.9,0.8c0.4,0.7,0.5,1.6,0,2
				c-0.1,0.1-0.3,0.2-0.4,0.4c-0.1,0.2,0,0.3-0.1,0.4c-0.1,0.3-0.5,0.3-0.7,0.3c-0.2,0-0.6,0.1-1.4-0.2c-0.5-0.1-0.9-0.4-1.7-0.8
				c-0.2-0.1-0.4-0.2-0.5-0.3c-0.3-0.3-0.3-0.5-0.5-0.7c-0.2-0.1-0.5-0.2-0.7,0c-0.2,0.2,0.1,0.7,0.1,1.8c0,0.6-0.1,0.7-0.1,0.7
				c-0.3,0.3-1,0-1.4-0.2c-0.2-0.1-0.5-0.3-1.1-1.3c-0.2-0.2-0.7-1.1-1.2-2.3c-0.2-0.6-0.4-1.1-0.4-1.1c-0.2-0.7-0.2-0.8-0.3-1
				c-0.3-0.5-0.7-0.7-1.5-1.2c-2-1.1-1.1-0.7-1.9-1.1c-2.7-1.3-4-2-6.1-2.7c-0.5-0.2-2.1-0.7-4-1.2c-0.7-0.2-1.1-0.2-1.5-0.3
				c-1.2-0.2-1.6-0.1-2.8-0.1c-0.4,0-1.4-0.1-3.3-0.4c-1.4-0.2-1.6-0.2-2.7-0.4c-1.5-0.2-1.6-0.2-2.4-0.3c-1.5-0.2-2.7-0.5-3.5-0.7
				c-6.4-1.5-7.9-1.4-12-2.8c-2.4-0.8-2.1-0.8-5.3-1.9c-1.6-0.5-1.4-0.4-6.9-2.1c-1.3-0.4-1.5-0.5-2-0.6c-3-0.7-4.1,0-4.9-0.7
				c-1.2-1.1-0.7-4.1,0.5-4.6c0.1,0,0.7,0,1.9,0c0,0,0.2,0,1.8,0c1,0,1.3,0,1.6,0c0.6-0.1,1.1-0.2,1.2-0.2c0.1,0,0.1,0,0.9-0.3
				c0.8-0.2,0.8-0.3,0.9-0.3c0.5-0.3,0.4-0.6,0.8-0.9c0.1-0.1,0.2-0.1,0.9-0.2c1.1-0.2,1.1-0.2,1.1-0.2c0.7-0.1,1-0.2,1.6-0.2
				c1.7-0.2,4.1-0.5,6.1-0.8c2.4-0.3,2.2-0.3,3.1-0.4c2.1-0.2,2.2,0,4.1-0.2c0.8-0.1,1.6-0.2,2.7-0.2c0.5,0,0.5,0,1.5,0.1
				c1.9,0.1,2.2,0,3.4,0.1c0.7,0,1.4,0.1,2.6,0.3c1.4,0.2,2.3,0.3,3.8,0.6c2.5,0.4,3.8,0.6,4.3,0.6c1.3,0.1,3.1,0.3,5.3,0
				c1.1-0.1,3-0.5,5.4-1.4c1.6-0.7,1.3-0.8,6.2-3.4c0.3-0.2,1-0.6,2-1c0.7-0.3,1.2-0.5,1.9-0.7c1.9-0.7,2.4-0.7,2.9-0.7
				c0.6,0,0.9,0.1,1.2,0.3c0.8,0.6,0.7,1.8,0.7,1.9c-0.1,1.2-1,2-1.6,2.5c-0.5,0.4-0.5,0.3-1.2,0.8c-1.2,0.9-1.3,1.3-2.8,2.7
				c-0.8,0.7-0.7,0.6-1.6,1.4c-1.1,1-1.3,1.3-2,2c-0.2,0.2-1.3,1.2-2.7,2c-1.7,1-2,0.6-3.8,1.5c-0.1,0-0.2,0.1-0.3,0.2
				C57.2,51.1,56.6,51.4,56.1,51.8"/>
			<line class="st5" x1="56.1" y1="51.8" x2="56.1" y2="51.8"/>
		</g>
	</g>
	<path class="st6" d="M73.6,50.3c0.6,0,0.7-0.2,1.1-0.1c0.1,0,0.3,0.2,0.7,0.5c0.6,0.5,0.6,0.5,0.7,0.6c0.6,0.3,1-0.1,1.2,0.2
		c0.1,0.1,0,0.5-0.1,1.1c-0.1,0.5-0.2,0.8-0.3,1c-0.3,0.4-0.8,0.5-1.1,0.6c-0.5,0.1-0.5,0-0.8,0.2c-0.4,0.2-0.5,0.5-0.8,0.6
		c-0.3,0-0.3-0.2-0.6-0.2c-0.5-0.1-0.7,0.4-1.4,0.5c-0.2,0-0.5,0-0.6-0.2c-0.2-0.3,0.2-0.9,0-1.1c-0.1-0.1-0.3,0-0.6-0.2
		c-0.3-0.1-0.3-0.3-0.5-0.5c-0.3-0.3-0.6-0.3-0.9-0.4c-1-0.4-1.5-1.5-1.6-1.7c-0.3-0.6,0-0.8-0.4-1.5c-0.3-0.6-0.6-0.7-0.5-1
		c0.1-0.4,0.8-0.7,1.4-0.6c0.4,0,0.5,0.2,0.9,0.3c0.4,0,0.4-0.1,0.8-0.1c0.3,0,0.9,0,1.2,0.3c0.2,0.2,0.2,0.3,0.4,0.5
		c0.3,0.3,0.6,0.2,0.7,0.4c0.1,0.2-0.1,0.4,0.1,0.6C72.9,50.3,73.3,50.3,73.6,50.3z"/>
	<path class="st6" d="M12.8,43.5c0.1-0.1,0.2-0.1,0.9-0.2c1.1-0.2,1.1-0.2,1.1-0.2c0.7-0.1,1-0.2,1.6-0.2c1.7-0.2,4.1-0.5,6.1-0.8
		c2.4-0.3,2.2-0.3,3.1-0.4c2.1-0.2,2.2,0,4.1-0.2c0.8-0.1,1.6-0.2,2.7-0.2c0.5,0,0.5,0,1.5,0.1c1.9,0.1,2.2,0,3.4,0.1
		c0.7,0,1.4,0.1,2.6,0.3c1.4,0.2,2.3,0.3,3.8,0.6c2.5,0.4,3.8,0.6,4.3,0.6c1.3,0.1,3.1,0.3,5.3,0c1.1-0.1,3-0.5,5.4-1.4
		c1.7-0.7,1.3-0.8,6.2-3.4c0.3-0.2,1-0.6,2-1c0.7-0.3,1.2-0.5,1.9-0.7c1.9-0.7,2.4-0.7,2.9-0.7c0.6,0,0.9,0.1,1.2,0.3
		c0.8,0.6,0.7,1.8,0.7,1.9c-0.1,1.2-1,2-1.6,2.5c-0.5,0.4-0.5,0.3-1.2,0.8c-1.2,0.9-1.3,1.3-2.8,2.7c-0.8,0.7-0.7,0.6-1.6,1.4
		c-1.1,1-1.3,1.3-2,2c-0.2,0.2-1.3,1.2-2.7,2c-1.7,1-2,0.6-3.8,1.5c-0.8,0.4-3.6,1.8-3.3,3c0.1,0.7,1.3,1.2,1.9,1.5
		c0.8,0.4,0.9,0.2,1.9,0.6c0.3,0.1,0.5,0.2,2.2,1.1c0.9,0.5,1.4,0.7,1.5,0.8c1.1,0.7,1.6,1.6,2,2.2c0.3,0.5,1.5,1.4,3.8,3.3
		c2.4,2,3.6,3,4.6,3.5c0,0,0.6,0.4,1.2,0.9c0.5,0.4,0.7,0.6,0.9,0.8c0.4,0.6,0.5,1.6,0,2c-0.1,0.1-0.3,0.2-0.4,0.4
		c-0.1,0.2,0,0.3-0.1,0.4c-0.1,0.3-0.5,0.3-0.7,0.3c-0.2,0-0.6,0.1-1.4-0.2c-0.5-0.1-0.9-0.4-1.7-0.8c-0.2-0.1-0.4-0.2-0.5-0.3
		c-0.3-0.3-0.3-0.5-0.5-0.7c-0.2-0.1-0.5-0.2-0.7,0c-0.2,0.2,0.1,0.7,0.1,1.8c0,0.6-0.1,0.7-0.1,0.7c-0.3,0.3-1,0-1.4-0.2
		c-0.2-0.1-0.5-0.3-1.1-1.3c-0.2-0.2-0.7-1.1-1.2-2.3c-0.2-0.6-0.4-1.1-0.4-1.1c-0.2-0.7-0.2-0.8-0.3-1c-0.3-0.5-0.7-0.7-1.5-1.2
		c-2-1.1-1.1-0.7-1.9-1.1c-2.7-1.3-4-2-6.1-2.7c-0.5-0.2-2.1-0.7-4-1.2c-0.7-0.2-1.1-0.2-1.5-0.3c-1.2-0.2-1.6-0.1-2.8-0.1
		c-0.4,0-1.4-0.1-3.3-0.4c-1.4-0.2-1.6-0.2-2.7-0.4c-1.5-0.2-1.6-0.2-2.4-0.3c-1.5-0.2-2.7-0.5-3.5-0.7c-6.4-1.5-7.9-1.4-12-2.8
		c-2.4-0.8-2.1-0.8-5.3-1.9c-1.6-0.5-1.4-0.4-6.9-2.1c-1.3-0.4-1.5-0.5-2-0.6c-3-0.7-4.1,0-4.9-0.7c-1.2-1.1-0.7-4.1,0.5-4.6
		c0.1,0,0.7,0,1.9,0c0,0,0.2,0,1.8,0c1,0,1.3,0,1.6,0c0.6-0.1,1.1-0.2,1.2-0.2c0.1,0,0.1,0,0.9-0.3c0.8-0.2,0.8-0.3,0.9-0.3
		C12.5,44.1,12.4,43.7,12.8,43.5z"/>
	<path class="st5" d="M54.8,54c0.1-0.1,0.3-0.2,0.6-0.2c0.6-0.2,1.1,0,1.6,0c0.4,0,0.8,0,1.7-0.1c0.3,0,0.9-0.2,2.9-0.7
		c3.3-0.8,3.2-0.9,4.3-1.1c0.1,0,0,0,4-0.5c0.8-0.1,1.6-0.2,2.6,0c0.5,0.1,1.8,0.3,2,1c0,0.1,0,0.4-0.1,0.5
		c-0.2,0.2-0.8-0.3-1.2-0.5c-0.7-0.4-1.5-0.3-2.8-0.1c-2.7,0.5-6.2,1.5-7.7,2c-1.1,0.3-1.9,0.5-3.1,0.7c-1.3,0.2-2.3,0.2-3,0.2"/>
	<path class="st5" d="M56.1,51.8c1-0.2,1.7-0.4,2.3-0.5c1.6-0.4,1.7-0.4,2.5-0.6c0.6-0.1,1-0.1,1.8-0.3c0.5-0.1,0.5-0.1,0.9-0.2
		c0.9-0.2,2-0.2,2-0.2c0.5,0,0.3,0,0.9,0c0.7,0,1.3-0.1,2,0.1c0.2,0,0.4,0.1,0.6,0.3c0.1,0.2,0.2,0.5,0.1,0.6
		c-0.1,0.1-0.3,0-0.9-0.1c-0.1,0-0.3,0-0.7,0c-0.9,0-1.4,0-1.5,0c-0.6,0-1.1,0.1-1.4,0.1c-0.3,0.1-0.7,0.1-1.2,0.2
		c-0.9,0.2-1.3,0.4-2.3,0.6c-1.1,0.3-1.9,0.5-2.1,0.6c-1.1,0.3-1.4,0.3-2.4,0.6c-0.8,0.2-1.4,0.4-1.8,0.5"/>
	<path class="st6" d="M69.8,64.7c0.1-0.8,0.1-1.9-0.2-3.1c-0.2-0.8-0.5-1.4-0.7-1.7c-0.1-0.2-0.4-0.7-0.9-1.3
		c-0.5-0.6-1.1-1.2-2.4-2.2c-0.8-0.7-0.9-0.7-2.2-1.6c-1.7-1.3-1.9-1.5-2.9-2.2c-0.6-0.5-1.6-1.1-2.8-1.7"/>
</g>
</svg>
